<mxfile host="app.diagrams.net" modified="2024-03-09T00:07:09.872Z" agent="Mozilla/5.0 (X11; Linux x86_64; rv:109.0) Gecko/20100101 Firefox/115.0" version="24.0.3" etag="oGtX4ASY_Cq23tq3IoSC" type="github">
  <diagram name="Page-1" id="c9SN_nScN5CfoZYOvJSC">
    <mxGraphModel>
      <root>
        <mxCell id="0" />
        <mxCell id="1" parent="0" />
      </root>
    </mxGraphModel>
  </diagram>
</mxfile>
